<?xml version="1.0" standalone="no"?><!DOCTYPE svg PUBLIC "-//W3C//DTD SVG 1.1//EN" "http://www.w3.org/Graphics/SVG/1.1/DTD/svg11.dtd"><svg class="icon" width="16px" height="16.00px" viewBox="0 0 1024 1024" version="1.1" xmlns="http://www.w3.org/2000/svg"><path d="M907.37 775.2a42.51 42.51 0 0 1-0.32-70l13.29-9.28-5.48-15.19A176.22 176.22 0 0 0 882 624.37l-10.45-12-14.44 6.74a42.48 42.48 0 0 1-60.34-34.59l-1.47-15.93-15.72-3a178.08 178.08 0 0 0-65.18 0l-15.72 3-1.48 15.93a42.47 42.47 0 0 1-60.33 34.59l-14.45-6.74-10.44 12A178.08 178.08 0 0 0 579 680.69l-5.49 15.19 13.3 9.28a42.53 42.53 0 0 1-0.32 70l-13.29 9.07 5.27 15.3a176.15 176.15 0 0 0 32.3 56.47l10.55 12.45 14.76-7.17a41.62 41.62 0 0 1 18.57-4.22 42.62 42.62 0 0 1 42.5 39.66l1.06 16.35 16.14 3a180.34 180.34 0 0 0 65 0l16.14-3 1-16.35A42.64 42.64 0 0 1 839 857.05a43.11 43.11 0 0 1 18.56 4.22l14.77 7.17L882.9 856a175.94 175.94 0 0 0 32.27-56.42l5.28-15.3z m-47.78 42.19a87.58 87.58 0 0 0-20.36-2.39 85 85 0 0 0-81.53 61.59 143 143 0 0 1-21.31 0A85 85 0 0 0 654.86 815a87.58 87.58 0 0 0-20.36 2.42 142.3 142.3 0 0 1-10.65-18.56 84.63 84.63 0 0 0 0.53-116.77 130.74 130.74 0 0 1 11.07-19 86 86 0 0 0 19.41 2.22 84.6 84.6 0 0 0 81-59.92 130 130 0 0 1 22.15 0A85.64 85.64 0 0 0 781.75 643a85.07 85.07 0 0 0 76.68 20 130.74 130.74 0 0 1 11.07 19 84.63 84.63 0 0 0 0.5 116.83 120.46 120.46 0 0 1-10.41 18.56zM747.05 665.82a75.1 75.1 0 1 0 75.1 75.1 75.21 75.21 0 0 0-75.1-75.1z m0 107.9A32.91 32.91 0 1 1 780 740.81a32.94 32.94 0 0 1-32.95 32.91zM516.06 821.73h-274c-13.79 0-25.44-14.25-25.44-31.11V233c0-16.86 11.65-31.1 25.44-31.1h510.08c13.79 0 25.44 14.24 25.44 31.1v276.53a30 30 0 1 0 60 0V233c0-50.23-38.33-91.1-85.44-91.1H242.08c-47.11 0-85.44 40.87-85.44 91.1v557.62c0 50.24 38.33 91.11 85.44 91.11h274a30 30 0 0 0 0-60zM322.47 348.22m-32 0a32 32 0 1 0 64 0 32 32 0 1 0-64 0ZM322.47 498.54m-32 0a32 32 0 1 0 64 0 32 32 0 1 0-64 0ZM322.47 644.86m-32 0a32 32 0 1 0 64 0 32 32 0 1 0-64 0ZM677.5 318.22H423.83a30 30 0 1 0 0 60H677.5a30 30 0 0 0 0-60zM677.5 468.54H423.83a30 30 0 0 0 0 60H677.5a30 30 0 1 0 0-60zM522 614.86h-98.17a30 30 0 0 0 0 60H522a30 30 0 0 0 0-60z" /></svg>