<?xml version="1.0" standalone="no"?><!DOCTYPE svg PUBLIC "-//W3C//DTD SVG 1.1//EN" "http://www.w3.org/Graphics/SVG/1.1/DTD/svg11.dtd"><svg class="icon" width="16px" height="16.00px" viewBox="0 0 1024 1024" version="1.1" xmlns="http://www.w3.org/2000/svg"><path d="M725.333333 42.666667l128 0q52.992 0 90.496 37.504t37.504 90.496l0 128q0 17.664-12.501333 30.165333t-30.165333 12.501333-30.165333-12.501333-12.501333-30.165333l0-128q0-17.664-12.501333-30.165333t-30.165333-12.501333l-128 0q-17.664 0-30.165333-12.501333t-12.501333-30.165333 12.501333-30.165333 30.165333-12.501333zM85.333333 682.666667q17.664 0 30.165333 12.501333t12.501333 30.165333l0 128q0 17.664 12.501333 30.165333t30.165333 12.501333l128 0q17.664 0 30.165333 12.501333t12.501333 30.165333-12.501333 30.165333-30.165333 12.501333l-128 0q-52.992 0-90.496-37.504t-37.504-90.496l0-128q0-17.664 12.501333-30.165333t30.165333-12.501333zM170.666667 42.666667l128 0q17.664 0 30.165333 12.501333t12.501333 30.165333-12.501333 30.165333-30.165333 12.501333l-128 0q-17.664 0-30.165333 12.501333t-12.501333 30.165333l0 128q0 17.664-12.501333 30.165333t-30.165333 12.501333-30.165333-12.501333-12.501333-30.165333l0-128q0-52.992 37.504-90.496t90.496-37.504zM938.666667 682.666667q17.664 0 30.165333 12.501333t12.501333 30.165333l0 128q0 52.992-37.504 90.496t-90.496 37.504l-128 0q-17.664 0-30.165333-12.501333t-12.501333-30.165333 12.501333-30.165333 30.165333-12.501333l128 0q17.664 0 30.165333-12.501333t12.501333-30.165333l0-128q0-17.664 12.501333-30.165333t30.165333-12.501333z" fill="#444444" /></svg>