<?xml version="1.0" standalone="no"?><!DOCTYPE svg PUBLIC "-//W3C//DTD SVG 1.1//EN" "http://www.w3.org/Graphics/SVG/1.1/DTD/svg11.dtd"><svg class="icon" width="16px" height="12.49px" viewBox="0 0 1312 1024" version="1.1" xmlns="http://www.w3.org/2000/svg"><path d="M111.531121 618.726188l73.632677-5.104903q2.397085 19.764853 9.710414 30.052342 11.929936 16.646423 34.213948 16.646423 16.535447 0 25.524515-8.522969a26.467812 26.467812 0 0 0 8.878092-19.77595 26.168177 26.168177 0 0 0-8.522969-19.087898q-8.46748-8.522969-39.540803-15.913981-50.893664-12.595793-72.611697-33.403822a69.914976 69.914976 0 0 1-21.873399-53.00221 76.007567 76.007567 0 0 1 44.856561-69.559853q22.406085-10.820175 61.580667-10.797979 47.974991 0 73.177675 19.598388t29.963561 62.279817l-72.92243 4.672096c-1.930985-12.384939-6.026005-21.362909-12.207377-26.9894s-14.770926-8.46748-25.735369-8.467481c-8.977971 0-15.736418 2.097449-20.286441 6.247958a19.975707 19.975707 0 0 0-6.813936 15.336904c0 4.37246 1.808911 8.301016 5.548808 11.81896s12.329451 6.991498 26.023908 10.109928q50.705004 11.941034 72.722672 24.270484c14.604462 8.178942 25.235977 18.28887 31.938937 30.451857a83.06565 83.06565 0 0 1 9.987854 40.617272 93.652775 93.652775 0 0 1-13.317138 48.751824 85.451638 85.451638 0 0 1-37.27689 33.814433q-23.848775 11.497129-60.282246 11.530423-63.922264 0-88.51458-26.989401t-27.843916-68.583262z m227.268063-188.515191h66.241666v107.391623l69.38229-107.436013h88.059578l-78.060626 107.214061 81.689546 176.918183h-81.689546L439.2437 597.418766l-34.20285 47.497794v69.382291h-66.241666z m381.41394 0h73.122187v166.464229a162.92409 162.92409 0 0 1-6.591984 46.754253 104.805879 104.805879 0 0 1-20.519491 38.44214 82.377598 82.377598 0 0 1-29.36429 23.12743q-21.307421 9.377485-51.248787 9.321997a278.42807 278.42807 0 0 1-37.731892-2.84099c-13.638969-1.930985-25.058415-5.681979-34.20285-11.363958s-17.611915-13.638969-25.169392-24.092923a93.686068 93.686068 0 0 1-15.625442-32.183084q-6.825033-26.634277-6.813936-47.209255v-166.464229h73.066699v170.492663c0 15.17044 3.62892 27.100376 10.79798 35.678833s17.090328 12.839941 29.819292 12.839941a36.899571 36.899571 0 0 0 29.663926-12.662379c7.21345-8.411992 10.79798-20.452905 10.79798-35.911883z m0 0M56.819878 286.863101v564.868617h795.432672v-564.868617L454.536214 57.4421z m-28.187943-49.883781L426.348271 7.558319a56.320398 56.320398 0 0 1 56.364788 0l397.716336 229.421001a57.507842 57.507842 0 0 1 28.598555 49.817195v564.868617c0 31.705887-25.446832 57.385769-56.808693 57.385769H56.819878C25.458017 909.050901 0.000088 883.371019 0.000088 851.665132V286.863101a57.507842 57.507842 0 0 1 28.631847-49.828293z m0 0M458.853186 255.723192a42.614843 42.614843 0 1 0-42.614842-42.614842 42.614843 42.614843 0 0 0 42.614842 42.614842z m0 0" /></svg>