<?xml version="1.0" standalone="no"?><!DOCTYPE svg PUBLIC "-//W3C//DTD SVG 1.1//EN" "http://www.w3.org/Graphics/SVG/1.1/DTD/svg11.dtd"><svg class="icon" width="16px" height="15.69px" viewBox="0 0 1044 1024" version="1.1" xmlns="http://www.w3.org/2000/svg"><path d="M493.116112 34.700207c22.504262 0 45.008524 2.114037 66.899033 6.20572 21.549536 3.955294 42.485318 9.547263 62.53457 16.70771 18.480773 6.4785 35.938624 14.457283 52.100775 23.799961 13.297973 7.706005 25.163856 16.639515 35.393067 26.732336 19.912862 20.117446 34.983898 42.894487 44.394771 67.171811 8.728926 22.91343 15.27562 46.304223 19.571888 70.035991 4.296268 25.573025 6.273915 51.282439 6.205721 77.060048a40.91684 40.91684 0 0 1 12.888804 12.411441 62.329986 62.329986 0 0 1 8.183368 42.826292 85.516195 85.516195 0 0 1-10.09282 31.915135 69.149459 69.149459 0 0 1-17.185073 18.617162 59.056639 59.056639 0 0 1-21.958704 10.433794c-3.614321 10.22921-7.365031 20.390225-11.456715 30.483046-4.296268 8.319757-8.592536 16.366736-13.366168 24.345519a69.967796 69.967796 0 0 1-17.185072 18.548968 1087.024039 1087.024039 0 0 0-36.347793 24.345519 53.46467 53.46467 0 0 0-18.617162 33.824588c-2.250426 9.547263-3.068763 19.299109-2.45501 29.050956 1.15931 10.161015 4.569047 20.117446 10.09282 29.391929 6.4785 10.570184 15.616594 20.117446 26.80053 28.09623 15.002841 10.22921 32.324303 18.276188 51.077855 23.799962 20.731199 6.751279 41.939761 12.479636 63.489296 17.185073 22.708846 4.978215 45.008524 10.842962 66.967228 17.594241 20.663004 6.205721 40.098503 14.525478 57.760938 24.822882 17.116878 10.22921 29.664709 24.34552 35.87043 40.371282 4.364463 12.343247 7.160447 24.959272 8.592536 37.643493 1.841258 15.071036 2.932374 30.142072 2.795984 45.281302 0.204584 14.389089-1.2957 28.709982-4.228074 42.894487a71.604469 71.604469 0 0 1-11.934078 30.483045 77.741995 77.741995 0 0 1-33.483614 13.366168c-22.163288 5.1828-44.599355 9.479068-67.308201 12.82061-27.277893 4.159879-56.874407 7.7742-90.35802 11.047547a3679.99236 3679.99236 0 0 1-195.855273 13.366167c-30.55124 1.2957-57.35177 1.909453-79.787837 1.909453-22.436067 0-48.759234-0.613753-78.833111-1.909453a3713.612363 3713.612363 0 0 1-187.740099-12.888804 2851.085384 2851.085384 0 0 1-85.993558-9.0699 1249.122919 1249.122919 0 0 1-65.466943-9.547262 102.837657 102.837657 0 0 1-33.415419-9.547263 70.445159 70.445159 0 0 1-18.139799-46.645197 289.827614 289.827614 0 0 1 5.250994-101.064594c1.977647-20.663004 14.320894-39.962113 34.370145-53.805644a244.81909 244.81909 0 0 1 66.42167-29.39193c25.845804-7.501421 52.168971-13.97992 78.833111-19.571888a284.781204 284.781204 0 0 0 72.081833-24.754688c13.843531-6.546694 26.391362-14.593673 37.370713-23.868157 7.842394-6.683084 14.11631-14.457283 18.548967-22.845235a47.736313 47.736313 0 0 0 6.273916-23.868156c0-8.251563-0.545558-17.457852-1.43209-27.618867a47.804508 47.804508 0 0 0-18.753551-34.779314 553.877619 553.877619 0 0 0-36.279598-26.254972 60.352338 60.352338 0 0 1-16.230346-18.548967 1659.177846 1659.177846 0 0 1-12.888805-24.34552 820.246245 820.246245 0 0 1-11.456715-30.483045 55.374123 55.374123 0 0 1-16.230346-6.683084 85.379805 85.379805 0 0 1-15.343815-13.297973 71.127106 71.127106 0 0 1-13.775336-24.822883 51.964386 51.964386 0 0 1-5.250995-29.323735c0.750142-7.842394 2.864179-15.480204 6.205721-22.91343a60.897896 60.897896 0 0 1 15.343815-20.049251 362.932367 362.932367 0 0 1 4.705437-72.354612c3.409737-22.231483 9.001705-44.190187 16.707709-65.739722a186.853568 186.853568 0 0 1 36.756961-62.943738c13.366168-16.434931 30.210267-31.096798 49.71396-43.37185 17.048683-10.570184 35.870429-19.435499 55.851486-26.186778 18.344383-6.205721 37.643492-10.501989 57.35177-12.888804 18.344383-2.182231 36.89335-3.273347 55.510513-3.341542v0.13639h-0.068195z" /></svg>